<?xml version="1.0" encoding="UTF-8"?>
<svg version="1.1" xmlns="http://www.w3.org/2000/svg" width="192" height="192">
<path d="M0 0 C0.71276093 -0.0068985 1.42552185 -0.013797 2.15988159 -0.02090454 C20.51596755 -0.12099743 36.7478696 5.1838881 52.375 14.8125 C53.44995728 15.47306396 53.44995728 15.47306396 54.54663086 16.14697266 C56.2783391 17.24733554 57.95758277 18.42945338 59.625 19.625 C59.625 20.285 59.625 20.945 59.625 21.625 C60.181875 21.8725 60.73875 22.12 61.3125 22.375 C66.73455154 25.30583867 71.04924409 29.63614467 74.625 34.625 C74.625 35.285 74.625 35.945 74.625 36.625 C75.285 36.625 75.945 36.625 76.625 36.625 C91.31475146 53.73780325 96.18120069 75.08891404 96.25 97 C96.25698914 97.71303284 96.26397827 98.42606567 96.2711792 99.16070557 C96.37339235 117.95440492 90.81053879 134.79953477 80.625 150.625 C80.22925781 151.26953125 79.83351562 151.9140625 79.42578125 152.578125 C78.55281289 153.96708581 77.59815127 155.3042947 76.625 156.625 C75.965 156.625 75.305 156.625 74.625 156.625 C74.3775 157.181875 74.13 157.73875 73.875 158.3125 C70.94416133 163.73455154 66.61385533 168.04924409 61.625 171.625 C60.965 171.625 60.305 171.625 59.625 171.625 C59.625 172.285 59.625 172.945 59.625 173.625 C42.51219675 188.31475146 21.16108596 193.18120069 -0.75 193.25 C-1.46303284 193.25698914 -2.17606567 193.26397827 -2.91070557 193.2711792 C-21.70440492 193.37339235 -38.54953477 187.81053879 -54.375 177.625 C-55.01953125 177.22925781 -55.6640625 176.83351562 -56.328125 176.42578125 C-57.71708581 175.55281289 -59.0542947 174.59815127 -60.375 173.625 C-60.375 172.965 -60.375 172.305 -60.375 171.625 C-60.931875 171.3775 -61.48875 171.13 -62.0625 170.875 C-67.48455154 167.94416133 -71.79924409 163.61385533 -75.375 158.625 C-75.375 157.965 -75.375 157.305 -75.375 156.625 C-76.035 156.625 -76.695 156.625 -77.375 156.625 C-78.72400938 154.69826916 -79.97874238 152.70517764 -81.1875 150.6875 C-82.18716797 149.03427734 -82.18716797 149.03427734 -83.20703125 147.34765625 C-83.93201291 146.108128 -84.65451867 144.86714948 -85.375 143.625 C-85.79080322 142.92028564 -86.20660645 142.21557129 -86.63500977 141.48950195 C-94.88656482 127.16637084 -96.95613895 112.53669748 -97 96.25 C-97.0068985 95.53723907 -97.013797 94.82447815 -97.02090454 94.09011841 C-97.12099743 75.73403245 -91.8161119 59.5021304 -82.1875 43.875 C-81.74712402 43.15836182 -81.30674805 42.44172363 -80.85302734 41.70336914 C-79.75266446 39.9716609 -78.57054662 38.29241723 -77.375 36.625 C-76.715 36.625 -76.055 36.625 -75.375 36.625 C-75.1275 36.068125 -74.88 35.51125 -74.625 34.9375 C-71.69416133 29.51544846 -67.36385533 25.20075591 -62.375 21.625 C-61.715 21.625 -61.055 21.625 -60.375 21.625 C-60.375 20.965 -60.375 20.305 -60.375 19.625 C-58.44826916 18.27599062 -56.45517764 17.02125762 -54.4375 15.8125 C-53.33535156 15.14605469 -52.23320313 14.47960937 -51.09765625 13.79296875 C-49.858128 13.06798709 -48.61714948 12.34548133 -47.375 11.625 C-46.67028564 11.20919678 -45.96557129 10.79339355 -45.23950195 10.36499023 C-30.91637084 2.11343518 -16.28669748 0.04386105 0 0 Z " fill="#DCDCDC" transform="translate(96.375,-0.625)"/>
<path d="M0 0 C7.39863578 3.56719939 10.32160934 9.23794605 13.16796875 16.59765625 C17.257794 28.40630661 16.25155008 44.14625654 10.86328125 55.3671875 C8.13007176 60.07486064 4.93937862 63.53031069 0 66 C-5.47782281 66.50022035 -10.37904863 66.73679608 -15.4375 64.4375 C-23.69941257 56.57860756 -27.06389516 47.33423277 -27.47485352 36.03344727 C-27.59264954 24.45855852 -25.98866231 13.93539649 -18.66015625 4.5859375 C-13.05539193 -0.76826089 -7.41417041 -0.90539394 0 0 Z " fill="#DADADA" transform="translate(58,63)"/>
<path d="M0 0 C0.66 0 1.32 0 2 0 C2.00586624 0.8054425 2.01173248 1.61088501 2.01777649 2.44073486 C2.07569283 10.03322857 2.14776299 17.62539371 2.23571491 25.21759415 C2.28043273 29.12079044 2.31968549 33.02388202 2.34643555 36.92724609 C2.37245484 40.69460155 2.41284682 44.46155435 2.46318626 48.22866058 C2.47986442 49.66550435 2.49137282 51.10241778 2.49761391 52.53934479 C2.50724372 54.55270928 2.53699877 56.56594702 2.56762695 58.57910156 C2.58428154 60.29785492 2.58428154 60.29785492 2.60127258 62.05133057 C3.04426395 65.32734078 3.72976078 66.64332893 6 69 C6.99 69.66 7.98 70.32 9 71 C7.89140625 71.04898438 6.7828125 71.09796875 5.640625 71.1484375 C4.17705935 71.22349215 2.71351888 71.29903881 1.25 71.375 C0.52039063 71.4059375 -0.20921875 71.436875 -0.9609375 71.46875 C-5.00797144 71.68949731 -7.29841994 72.14920997 -11 74 C-11.33 71.03 -11.66 68.06 -12 65 C-13.6396875 66.4540625 -13.6396875 66.4540625 -15.3125 67.9375 C-19.74339965 71.86678837 -23.61653 72.48317741 -29.4296875 72.3984375 C-34.68227309 71.58420691 -37.2749348 68.31885619 -40.31640625 64.23046875 C-44.46346588 56.90447839 -44.149235 47.14108431 -43 39 C-41.85869865 35.68835511 -40.42104118 33.50063706 -38 31 C-37.175 30.05125 -36.35 29.1025 -35.5 28.125 C-31.23908255 24.50322017 -27.46603983 23.70846791 -21.9375 23.6875 C-20.91527344 23.67074219 -19.89304688 23.65398437 -18.83984375 23.63671875 C-15.67836517 24.04114448 -14.3288136 24.88340442 -12 27 C-11.8253603 23.91738544 -11.71905933 20.83604167 -11.625 17.75 C-11.57472656 16.87730469 -11.52445313 16.00460938 -11.47265625 15.10546875 C-11.41530042 12.60093103 -11.42652856 10.44092971 -12 8 C-14.85357522 5.386506 -14.85357522 5.386506 -18 4 C-18 3.67 -18 3.34 -18 3 C-12.06 2.67 -6.12 2.34 0 2 C0 1.34 0 0.68 0 0 Z " fill="#5A5A5A" transform="translate(167,59)"/>
<path d="M0 0 C8.24366045 4.93393804 15.50991721 11.22152499 18.62890625 20.671875 C20.47333512 30.76288254 20.36152953 42.232668 15.1015625 51.2578125 C8.53047178 60.34631519 1.85584819 64.63535349 -8.8984375 67.2578125 C-11.86205537 67.57266682 -14.79448475 67.63909456 -17.7734375 67.6328125 C-18.5684668 67.63120117 -19.36349609 67.62958984 -20.18261719 67.62792969 C-26.18610977 67.50229238 -30.79150558 66.55556226 -35.8984375 63.2578125 C-37.4453125 62.3915625 -37.4453125 62.3915625 -39.0234375 61.5078125 C-46.33736625 55.78386826 -50.99350346 49.45560053 -52.8984375 40.2578125 C-53.93558012 29.6511581 -53.42078404 19.78101665 -47.16796875 10.76171875 C-36.18788562 -2.58532841 -15.8869665 -7.80699728 0 0 Z M-30.48046875 5.140625 C-38.5663524 16.11854003 -39.15232327 29.08766817 -37.8984375 42.2578125 C-36.26801643 50.76916317 -32.73247177 58.74215121 -25.578125 63.9453125 C-20.85558125 66.25839515 -16.03178804 65.88468027 -10.8984375 65.2578125 C-4.3917516 62.12066037 -0.62728895 56.83186373 2.1015625 50.2578125 C6.08513428 37.76275817 5.93160451 21.75191569 -0.03515625 10.0234375 C-2.79429512 5.25369585 -5.88583147 1.76411552 -10.8984375 -0.7421875 C-19.08643278 -1.48989366 -24.90821228 -1.49104813 -30.48046875 5.140625 Z " fill="#595959" transform="translate(68.8984375,63.7421875)"/>
<path d="M0 0 C0.66 0 1.32 0 2 0 C2.00879936 1.20816376 2.00879936 1.20816376 2.01777649 2.44073486 C2.07569283 10.03322857 2.14776299 17.62539371 2.23571491 25.21759415 C2.28043273 29.12079044 2.31968549 33.02388202 2.34643555 36.92724609 C2.37245484 40.69460155 2.41284682 44.46155435 2.46318626 48.22866058 C2.47986442 49.66550435 2.49137282 51.10241778 2.49761391 52.53934479 C2.50724372 54.55270928 2.53699877 56.56594702 2.56762695 58.57910156 C2.57873001 59.72493713 2.58983307 60.87077271 2.60127258 62.05133057 C3.04426395 65.32734078 3.72976078 66.64332893 6 69 C7.485 69.99 7.485 69.99 9 71 C7.87980469 71.04898438 6.75960937 71.09796875 5.60546875 71.1484375 C4.13278797 71.22347856 2.66013293 71.29902582 1.1875 71.375 C0.44951172 71.4059375 -0.28847656 71.436875 -1.04882812 71.46875 C-4.81893115 71.67346148 -6.79650741 71.86433827 -10 74 C-10.82845861 65.40334417 -11.25658396 56.81796392 -11.50131226 48.18734741 C-11.56373412 46.01964306 -11.63376042 43.85226696 -11.7043457 41.68481445 C-11.90416664 35.22088338 -12.04462793 28.78700937 -11.8515625 22.3203125 C-11.81373657 20.86999634 -11.81373657 20.86999634 -11.77514648 19.39038086 C-11.71839026 17.64010741 -11.63618509 15.89039813 -11.52368164 14.14282227 C-11.37343286 11.56328871 -11.37343286 11.56328871 -12 8 C-14.87014728 5.46142066 -14.87014728 5.46142066 -18 4 C-18 3.67 -18 3.34 -18 3 C-12.06 2.67 -6.12 2.34 0 2 C0 1.34 0 0.68 0 0 Z " fill="#575757" transform="translate(167,59)"/>
<path d="M0 0 C0.66 0 1.32 0 2 0 C2 4.29 2 8.58 2 13 C5.63 13 9.26 13 13 13 C13 13.66 13 14.32 13 15 C9.37 15 5.74 15 2 15 C2.11794106 20.2512212 2.24216602 25.50224097 2.37231445 30.75317383 C2.415727 32.5408927 2.45739729 34.32865474 2.49731445 36.11645508 C2.5548646 38.68063391 2.61860203 41.24459412 2.68359375 43.80859375 C2.70030624 44.6127623 2.71701874 45.41693085 2.73423767 46.24546814 C2.49220696 49.92669998 2.49220696 49.92669998 4 53 C7.94836905 53.2632246 10.60379269 53.08997373 14 51 C11.92685417 55.85116125 8.78849485 57.97501462 4 60 C0.49557225 60.7179025 -2.51577771 60.86806225 -6 60 C-8.85024685 57.85906116 -10.41036141 55.17927719 -12 52 C-12.08683445 49.22839374 -12.1155579 46.48225235 -12.09765625 43.7109375 C-12.0962413 42.89251373 -12.09482635 42.07408997 -12.09336853 41.23086548 C-12.0877629 38.61220675 -12.07520948 35.99363296 -12.0625 33.375 C-12.05748572 31.60156373 -12.05292269 29.82812613 -12.04882812 28.0546875 C-12.03779164 23.70309218 -12.02052325 19.3515605 -12 15 C-14.31 15 -16.62 15 -19 15 C-19 14.34 -19 13.68 -19 13 C-18.33613281 12.84144531 -17.67226562 12.68289062 -16.98828125 12.51953125 C-9.75754895 10.60892899 -6.42654109 8.11983854 -1.8125 2.1875 C-1.214375 1.465625 -0.61625 0.74375 0 0 Z " fill="#5F5F5F" transform="translate(110,71)"/>
<path d="M0 0 C3.5625 0.5 3.5625 0.5 5.9375 2.875 C9.50018238 8.6301023 8.82320698 14.08596492 8.875 20.75 C8.90400391 21.97847656 8.93300781 23.20695312 8.96289062 24.47265625 C9.0427867 35.81789859 9.0427867 35.81789859 4.5625 40.5 C0.84750878 42.97666082 -1.04657888 43.04886514 -5.4375 42.5 C-10.19116298 36.95405985 -9.6465787 29.66569943 -9.6875 22.75 C-9.708125 21.8940625 -9.72875 21.038125 -9.75 20.15625 C-9.78896186 13.72754282 -9.23111228 6.96109519 -5.04785156 1.77832031 C-3.4375 0.5 -3.4375 0.5 0 0 Z " fill="#DADADA" transform="translate(147.4375,84.5)"/>
<path d="M0 0 C2.125 0.9375 2.125 0.9375 4 2 C1.08175756 3.66674321 -0.97594379 4.2432008 -4.328125 4.1953125 C-5.52695312 4.18564453 -5.52695312 4.18564453 -6.75 4.17578125 C-7.575 4.15902344 -8.4 4.14226562 -9.25 4.125 C-10.09046875 4.11597656 -10.9309375 4.10695312 -11.796875 4.09765625 C-13.86470604 4.07415817 -15.93238995 4.03828908 -18 4 C-18 3.67 -18 3.34 -18 3 C-16.86820313 2.86722656 -15.73640625 2.73445312 -14.5703125 2.59765625 C-13.08851821 2.4194658 -11.60674864 2.24106971 -10.125 2.0625 C-9.00544922 1.93198242 -9.00544922 1.93198242 -7.86328125 1.79882812 C-3.8046769 1.36673937 -3.8046769 1.36673937 0 0 Z " fill="#7A7A7A" transform="translate(60,127)"/>
<path d="M0 0 C10.68430493 -0.76681614 10.68430493 -0.76681614 13.91015625 1.11328125 C15.25 2.5 15.25 2.5 17 5 C16.34 5.66 15.68 6.32 15 7 C14.63261719 6.36578125 14.26523438 5.7315625 13.88671875 5.078125 C11.35530171 2.28989753 9.49998803 2.22580491 5.8125 1.75 C4.72582031 1.60046875 3.63914063 1.4509375 2.51953125 1.296875 C1.27236328 1.14992188 1.27236328 1.14992188 0 1 C0 0.67 0 0.34 0 0 Z " fill="#757575" transform="translate(139,83)"/>
</svg>
