<?xml version="1.0" encoding="UTF-8"?>
<svg version="1.1" xmlns="http://www.w3.org/2000/svg" width="512" height="512">
<path d="M0 0 C1.45058807 0.00273422 1.45058807 0.00273422 2.93048096 0.00552368 C17.243695 0.05090755 31.23971879 0.47323058 45.3125 3.3125 C46.21436035 3.48942383 47.1162207 3.66634766 48.04541016 3.84863281 C54.51849895 5.14751287 60.92138488 6.65907126 67.3125 8.3125 C68.13250488 8.52213379 68.95250977 8.73176758 69.79736328 8.94775391 C110.73432636 19.65383706 148.00708888 42.03876245 178.3125 71.3125 C178.93334473 71.91143066 179.55418945 72.51036133 180.19384766 73.12744141 C188.09161802 80.78798212 195.67483652 88.51111599 202.3125 97.3125 C202.79928223 97.95525879 203.28606445 98.59801758 203.78759766 99.26025391 C215.40302889 114.68749484 225.0822624 130.85257673 233.3125 148.3125 C233.6125293 148.94446289 233.91255859 149.57642578 234.22167969 150.22753906 C262.11266068 209.56811039 264.09537943 280.02694914 242.88525391 341.72387695 C226.62248116 386.71433106 197.78077368 429.3012155 159.3125 458.3125 C158.66974121 458.79928223 158.02698242 459.28606445 157.36474609 459.78759766 C141.95948304 471.38648137 125.79392102 481.17399229 108.3125 489.3125 C107.1376001 489.85970703 107.1376001 489.85970703 105.93896484 490.41796875 C72.57853093 505.75369283 37.29198184 512.7679832 0.6875 512.625 C-0.28205627 512.62317719 -1.25161255 512.62135437 -2.25054932 512.61947632 C-16.58229259 512.57412737 -30.59645512 512.15545422 -44.6875 509.3125 C-45.58936035 509.13557617 -46.4912207 508.95865234 -47.42041016 508.77636719 C-53.89349895 507.47748713 -60.29638488 505.96592874 -66.6875 504.3125 C-67.50750488 504.10286621 -68.32750977 503.89323242 -69.17236328 503.67724609 C-120.56141499 490.23766925 -169.45912045 457.68145467 -201.6875 415.3125 C-202.09887207 414.78285645 -202.51024414 414.25321289 -202.93408203 413.70751953 C-211.12790929 403.13102552 -218.02269206 391.89976207 -224.6875 380.3125 C-225.06503418 379.66877441 -225.44256836 379.02504883 -225.83154297 378.36181641 C-240.49579594 353.25556837 -249.47538248 323.98869265 -253.6875 295.3125 C-253.86482666 294.10787109 -254.04215332 292.90324219 -254.22485352 291.66210938 C-255.82382494 280.0048269 -256.04590972 268.44063934 -256 256.6875 C-255.99726578 255.23316559 -255.99726578 255.23316559 -255.99447632 253.74945068 C-255.94912737 239.41770741 -255.53045422 225.40354488 -252.6875 211.3125 C-252.51057617 210.41063965 -252.33365234 209.5087793 -252.15136719 208.57958984 C-250.85248713 202.10650105 -249.34092874 195.70361512 -247.6875 189.3125 C-247.47786621 188.49249512 -247.26823242 187.67249023 -247.05224609 186.82763672 C-239.40549018 157.58865547 -225.70623297 129.54750098 -207.6875 105.3125 C-207.01702637 104.40878662 -207.01702637 104.40878662 -206.33300781 103.48681641 C-199.663652 94.58233811 -192.41333724 86.31061344 -184.6875 78.3125 C-184.08856934 77.69165527 -183.48963867 77.07081055 -182.87255859 76.43115234 C-175.20803772 68.52927857 -167.46506268 60.989243 -158.6875 54.3125 C-158.15785645 53.90112793 -157.62821289 53.48975586 -157.08251953 53.06591797 C-141.83614598 41.25423906 -125.19535266 31.38383563 -107.6875 23.3125 C-106.90858398 22.9505957 -106.12966797 22.58869141 -105.32714844 22.21582031 C-87.92057303 14.2119344 -70.10525296 8.50598801 -51.375 4.5 C-50.47031982 4.3050293 -49.56563965 4.11005859 -48.63354492 3.90917969 C-32.50290878 0.65753248 -16.41407027 -0.06440835 0 0 Z " fill="#DCDCDC" transform="translate(255.6875,-0.3125)"/>
<path d="M0 0 C16.90200721 12.42639782 24.49461572 30.87055679 28.5078125 50.84375 C28.67772705 51.48997314 28.8476416 52.13619629 29.02270508 52.80200195 C31.16222229 61.6338298 30.86011468 70.62711566 30.8203125 79.65625 C30.81707977 80.96157684 30.81707977 80.96157684 30.81378174 82.29327393 C30.7048594 109.63529966 27.68186476 137.95811987 7.75 158.6953125 C-2.30490229 168.32980076 -14.05237646 173.27315718 -27.98046875 173.1171875 C-40.64738982 172.13088664 -50.99420412 165.21485921 -59.55859375 156.16796875 C-79.95170336 131.65503902 -82.6859882 96.48378749 -80.26074219 65.92773438 C-78.04289868 43.31043277 -71.07329203 17.96726706 -53.015625 2.7578125 C-36.70918762 -9.20697282 -17.38825517 -11.11976193 0 0 Z " fill="#DCDCDC" transform="translate(163.4921875,173.15625)"/>
<path d="M0 0 C0.99 0 1.98 0 3 0 C3.00219984 1.32633202 3.00219984 1.32633202 3.00444412 2.67945862 C3.04151219 24.20463402 3.100527 45.72965197 3.18390274 67.25469971 C3.22369481 77.66410579 3.25608648 88.07343625 3.27099609 98.48291016 C3.28401171 107.55689039 3.31097415 116.63070426 3.35461307 125.7045908 C3.37722983 130.50819791 3.39291055 135.31159981 3.39188385 140.11526489 C3.39113737 144.63959657 3.40908338 149.16347455 3.44116783 153.68768883 C3.44966416 155.34524147 3.45141856 157.00284502 3.44580269 158.66040993 C3.29095849 170.42674287 3.29095849 170.42674287 8 181 C12.34629789 184.75362091 16.50411648 185.86292065 22 187 C22 187.66 22 188.32 22 189 C20.53361084 189.02187378 20.53361084 189.02187378 19.03759766 189.04418945 C15.3656999 189.10272927 11.69438024 189.17995134 8.02294922 189.26245117 C6.44231642 189.29544137 4.86157313 189.32355148 3.28076172 189.34643555 C-13.7093096 189.58586494 -13.7093096 189.58586494 -28 198 C-28.99 198 -29.98 198 -31 198 C-31.33 187.77 -31.66 177.54 -32 167 C-35.96 172.445 -35.96 172.445 -40 178 C-48.58025865 186.72326297 -60.24214357 193.23309172 -72.6875 193.375 C-84.98978758 193.1548538 -93.05212561 188.46820942 -101.8671875 180.26171875 C-109.32952355 172.51747223 -114.34674639 161.35142605 -117 151 C-117.20367187 150.24460937 -117.40734375 149.48921875 -117.6171875 148.7109375 C-121.96574535 129.47005823 -119.55469085 107.03503968 -109.25 90.12890625 C-100.36399798 77.21195573 -88.55165929 68.21597063 -73.18359375 64.46875 C-63.25270304 63.00653296 -51.12319594 62.28510668 -42 67 C-40.36498389 68.32409882 -38.77280185 69.70247971 -37.22265625 71.125 C-36.42738525 71.84945312 -35.63211426 72.57390625 -34.81274414 73.3203125 C-34.21453857 73.87460938 -33.61633301 74.42890625 -33 75 C-32.89832324 68.00753237 -32.82841829 61.01525642 -32.78027344 54.0222168 C-32.76019637 51.64486568 -32.73292887 49.2675637 -32.69824219 46.89038086 C-32.64955386 43.46716155 -32.62699147 40.04459694 -32.609375 36.62109375 C-32.58872986 35.56353378 -32.56808472 34.50597382 -32.54681396 33.41636658 C-32.54457071 25.98764304 -33.88622769 22.09064206 -38.39453125 16.16796875 C-40.68146902 14.50423544 -42.9542576 13.98777165 -45.6875 13.3125 C-46.68136719 13.06113281 -47.67523438 12.80976563 -48.69921875 12.55078125 C-49.45847656 12.36902344 -50.21773438 12.18726563 -51 12 C-51 11.01 -51 10.02 -51 9 C-50.01717041 8.98018066 -49.03434082 8.96036133 -48.02172852 8.93994141 C-44.33691991 8.86323566 -40.65247321 8.77462488 -36.96801758 8.68261719 C-35.38052574 8.64459343 -33.79295552 8.60969679 -32.20532227 8.578125 C-14.67389124 8.64010359 -14.67389124 8.64010359 0 0 Z " fill="#565656" transform="translate(448,157)"/>
<path d="M0 0 C1.22332031 0.3403125 2.44664062 0.680625 3.70703125 1.03125 C27.02598098 8.13980728 45.76813695 22.33739644 57.40478516 43.97338867 C68.12790497 65.01656067 71.16401855 92.89075301 65.0390625 115.81640625 C64.69617188 116.86699219 64.35328125 117.91757812 64 119 C63.79600586 119.63405762 63.59201172 120.26811523 63.38183594 120.92138672 C58.43901772 135.97647713 51.17191582 147.81179859 40 159 C39.34257812 159.66902344 38.68515625 160.33804688 38.0078125 161.02734375 C19.25175774 178.7771724 -8.83900628 184.50651711 -33.74609375 184.22265625 C-41.34423703 184.00151315 -48.59404757 182.62218405 -56 181 C-57.04285156 180.80664062 -58.08570312 180.61328125 -59.16015625 180.4140625 C-78.82357453 176.3384684 -97.23206482 163.08939028 -109.13671875 147.13671875 C-110.87303799 144.47386039 -112.4676416 141.78460827 -114 139 C-114.45890625 138.19046875 -114.9178125 137.3809375 -115.390625 136.546875 C-118.89672914 129.99933112 -121.04707265 123.14652017 -123 116 C-123.36222656 114.87207031 -123.72445312 113.74414062 -124.09765625 112.58203125 C-125.55698023 106.64560609 -125.29715452 100.51327789 -125.26074219 94.4387207 C-125.25011114 92.3344989 -125.26063257 90.23114745 -125.2734375 88.12695312 C-125.30090165 63.85809307 -118.09651893 43.24052247 -102 25 C-101.4946875 24.40058594 -100.989375 23.80117187 -100.46875 23.18359375 C-76.83448487 -2.8020396 -32.43610967 -9.34280511 0 0 Z M-57 10 C-58.03125 10.7425 -59.0625 11.485 -60.125 12.25 C-79.32815922 30.61823925 -84.73256025 59.97787568 -85.4050293 85.37084961 C-85.69555967 114.48723527 -81.25167188 144.90705069 -60.625 166.875 C-50.79502785 176.18228066 -39.84540576 180.71372718 -26.30078125 180.34765625 C-12.67849532 178.91288294 -0.53875328 171.54243185 8 161 C13.65268163 152.55158774 17.78280638 143.65158087 21 134 C21.29648438 133.11054688 21.59296875 132.22109375 21.8984375 131.3046875 C25.93864961 117.90398396 26.35225736 103.89747002 26.31567383 90.00927734 C26.31250233 87.50184 26.33613288 84.99557518 26.36132812 82.48828125 C26.45503498 58.67827393 21.04738909 32.70713205 4.12304688 14.9934082 C-5.52300699 5.29938871 -15.29813769 -0.03827204 -29.125 -0.3125 C-40.15752183 -0.33673546 -48.29629068 3.48504273 -57 10 Z " fill="#565656" transform="translate(168,166)"/>
<path d="M0 0 C1.32 0 2.64 0 4 0 C4 11.55 4 23.1 4 35 C14.23 35 24.46 35 35 35 C34.67 35.99 34.34 36.98 34 38 C24.1 38 14.2 38 4 38 C4.06301503 49.97041863 4.13850794 61.94058251 4.23571491 73.91077328 C4.28036289 79.46955339 4.31963138 85.02826114 4.34643555 90.5871582 C4.37252397 95.95598242 4.41296576 101.32452738 4.46318626 106.69317818 C4.47981751 108.73715289 4.49135502 110.78117587 4.49761391 112.82520866 C4.5072957 115.69748802 4.53540371 118.56905895 4.56762695 121.44116211 C4.56619186 122.27842331 4.56475677 123.11568451 4.5632782 123.97831726 C4.66986471 130.73564502 5.71829702 137.24853464 10.125 142.5625 C14.28533028 144.64266514 17.44068308 144.92824416 22 144 C26.16829103 142.28241274 30.06773335 140.19660626 34 138 C35.32934153 137.32540878 36.66099085 136.65519213 38 136 C33.19748361 146.20534732 24.07740429 152.42617778 14 156.9375 C8.51242302 158.90339353 3.46200167 159.48705126 -2.3125 159.5625 C-3.05306641 159.57724365 -3.79363281 159.5919873 -4.55664062 159.60717773 C-11.42581168 159.47880357 -16.57945536 157.09047037 -21.75 152.625 C-28.39363388 144.87409381 -30.30432244 139.11675795 -30.22705078 129.16088867 C-30.22734283 128.17504791 -30.22763489 127.18920715 -30.22793579 126.17349243 C-30.22654472 122.92156104 -30.2109938 119.66986002 -30.1953125 116.41796875 C-30.19158158 114.16067124 -30.18873498 111.9033721 -30.18673706 109.64607239 C-30.17910682 103.70964067 -30.15946345 97.77330706 -30.1373291 91.83691406 C-30.11685763 85.77735725 -30.10773255 79.71778456 -30.09765625 73.65820312 C-30.07621706 61.77208541 -30.04103978 49.88606622 -30 38 C-36.6 38 -43.2 38 -50 38 C-50 37.34 -50 36.68 -50 36 C-49.175 35.8040625 -48.35 35.608125 -47.5 35.40625 C-27.93622874 30.34063066 -14.53356963 21.69751501 -3 5 C-2.50113281 4.05382812 -2.00226563 3.10765625 -1.48828125 2.1328125 C-0.99714844 1.42898437 -0.50601563 0.72515625 0 0 Z " fill="#555555" transform="translate(293,190)"/>
<path d="M0 0 C7.82696786 3.76296532 12.13368921 10.43071661 15.23828125 18.27734375 C18.56207329 30.15776965 17.29946025 43.30040829 17.35009766 55.54345703 C17.36344098 58.42789383 17.39132278 61.31162391 17.43212891 64.19580078 C17.48176271 67.7064525 17.50625351 71.21646388 17.51332474 74.72745132 C17.52318343 76.6915699 17.55733763 78.65551915 17.59213257 80.61935425 C17.56671521 91.452448 14.44691303 99.26267557 7.00390625 107.171875 C1.76102463 111.95485472 -3.41630766 115.30329874 -10.625 115.8125 C-15.7769124 115.48458478 -18.77406623 113.83256569 -22.3515625 110.16015625 C-31.92874741 97.60995896 -31.51637778 78.52826364 -31.44604492 63.46508789 C-31.43754022 60.70057393 -31.46641411 57.93813967 -31.49804688 55.17382812 C-31.56183428 39.0322061 -30.66227826 18.66832893 -19.19921875 6.01171875 C-13.22248085 0.64929224 -8.02162668 -1.00588652 0 0 Z " fill="#DCDCDC" transform="translate(399,225)"/>
</svg>
