<?xml version="1.0" encoding="UTF-8"?>
<svg version="1.1" xmlns="http://www.w3.org/2000/svg" width="16" height="16">
<path d="M0 0 C2.5 1.5 2.5 1.5 4 4 C4.791013 8.02098277 4.62153384 10.96411027 2.5 14.5 C-1.03588973 16.62153384 -3.97901723 16.791013 -8 16 C-10.5 14.5 -10.5 14.5 -12 12 C-12.791013 7.97901723 -12.62153384 5.03588973 -10.5 1.5 C-6.96411027 -0.62153384 -4.02098277 -0.791013 0 0 Z " fill="#D1D1D1" transform="translate(12,0)"/>
<path d="M0 0 C0.33 0 0.66 0 1 0 C1.31424507 3.45669582 1.37956836 5.39901677 -0.5 8.375 C-3.99337287 10.64569236 -6.94200084 10.83987278 -11 10 C-13.5 8.1875 -13.5 8.1875 -15 6 C-15 5.01 -15 4.02 -15 3 C-14.34 3 -13.68 3 -13 3 C-13 3.66 -13 4.32 -13 5 C-11.35 5 -9.7 5 -8 5 C-7.67 4.34 -7.34 3.68 -7 3 C-7 3.66 -7 4.32 -7 5 C-3.9254644 4.2236068 -3.9254644 4.2236068 -2 2 C-2 2.99 -2 3.98 -2 5 C-1.34 5 -0.68 5 0 5 C0 3.35 0 1.7 0 0 Z " fill="#DBDBDB" transform="translate(15,6)"/>
<path d="M0 0 C1.65 0 3.3 0 5 0 C5 1.98 5 3.96 5 6 C3.35 6 1.7 6 0 6 C-1.125 2.25 -1.125 2.25 0 0 Z " fill="#ABABAB" transform="translate(2,5)"/>
<path d="M0 0 C1.32 0.33 2.64 0.66 4 1 C3.67 2.32 3.34 3.64 3 5 C2.01 5 1.02 5 0 5 C0 3.35 0 1.7 0 0 Z " fill="#939393" transform="translate(8,6)"/>
</svg>
